# xmcd CD database file
#
# Track frame offsets:
#	150
#	20214
#	38210
#	50836
#	63039
#	74684
#	89588
#	107138
#	122864
#	142095
#	155328
#	166633
#	183629
#	202454
#	218106
#	229799
#	244096
#	262617
#	278453
#	291537
#	303239
#	316669
#	328016
#	341662
#
# Disc length: 4772 seconds
#
# Revision: 0
# Processed by: cddbd v1.5.2PL0 Copyright (c) Steve Scherf et al.
# Submitted via: CDex 1.51
#
DISCID=7212a218
DTITLE=Various Artist - The Best Country Album...Ever CD2
DYEAR=2006
DGENRE=Country
TTITLE0=Lonestar - Amazed
TTITLE1=Lee Ann Womack - I Hope You Dance
TTITLE2=LeAnn Rimes - Blue
TTITLE3=Patsy Cline - Crazy
TTITLE4=Tanny Wynette - I Don't Want To Play House
TTITLE5=Don Williams - I Recall A Gypsy Woman
TTITLE6=Jerry Jeff Walker - Mr Bojangles
TTITLE7=Kenny Rogers - The Gambler
TTITLE8=Mac Davis - It's Hard To Be Humble
TTITLE9=Faron Young - It's Four In The Morning
TTITLE10=Crystal Gayle - Don't It Make My Brown Eyes Blue
TTITLE11=Rick Nelson - Garden Party
TTITLE12=Jimmy Buffett - Margaritaville
TTITLE13=Billie Jo Spears - Sing Me An Old Fashioned Song
TTITLE14=Marvin Rainwater - Whole Lotta Woman
TTITLE15=Eddie Rabbitt - I Love A Rainy Night
TTITLE16=Joe South - Walk A Mile In My Shoes
TTITLE17=The Band - The Night They Drove Old Dixie Down
TTITLE18=Hank Williams - Hey Good Lookin'
TTITLE19=Tennessee Ernie Ford - Sixteen Tons
TTITLE20=Jimmy Dean - Big Bad John
TTITLE21=Kitty Wells - It Wasn't God Who Made Honky Tonk Angels
TTITLE22=Willie Nelson - Funny How Time Slips Away
TTITLE23=Debby Boone - You Lite Up My Life
EXTD=YEAR: 2006
EXTT0=
EXTT1=
EXTT2=
EXTT3=
EXTT4=
EXTT5=
EXTT6=
EXTT7=
EXTT8=
EXTT9=
EXTT10=
EXTT11=
EXTT12=
EXTT13=
EXTT14=
EXTT15=
EXTT16=
EXTT17=
EXTT18=
EXTT19=
EXTT20=
EXTT21=
EXTT22=
EXTT23=
PLAYORDER=
